<svg xmlns="http://www.w3.org/2000/svg" width="56" height="56" viewBox="0 0 56 56"><defs><style>.a{fill:#3e4046;}.b{fill:#fff;}</style></defs><g transform="translate(-967 -5863)"><circle class="a" cx="28" cy="28" r="28" transform="translate(967 5863)"/><g transform="translate(704.27 5808.219)"><g transform="translate(280.695 69.832)"><path class="b" d="M334.475,122.847a2.45,2.45,0,0,1,.294-.482,21.551,21.551,0,0,1,3.975-3.311,6.888,6.888,0,0,1,3.442-1.219,2.138,2.138,0,0,1,2.418,2.655,5.867,5.867,0,0,1-1.581,3.278,14.316,14.316,0,0,1-5.716,3.855,21.006,21.006,0,0,1-6.354,1.369.974.974,0,0,0-.962.905c-.237,1.565-1.581,1.711-2.673,2.189a.868.868,0,0,1-.148-.079l1.952-3.391-1.122-.79.259-.445,1.211.617c.119-.2.221-.348.314-.51,2.784-4.858,5.532-9.742,8.367-14.567,1.185-2.009,2.559-3.908,3.894-5.821a12.683,12.683,0,0,1,3.24-3.181,5.144,5.144,0,0,1,1.266-.66c.6-.2,1.022.172.942.806a4.958,4.958,0,0,1-.3,1.156,10.965,10.965,0,0,1-4.9,5.659l-.441.255a1.594,1.594,0,0,1-.2,1.875,8.308,8.308,0,0,1-.958,1.134,37.392,37.392,0,0,0-6.158,8.006c-.1.172-.176.358-.263.535Zm-3.4,5.408c.715-.113,1.363-.2,2-.322a13.209,13.209,0,0,0,7.508-3.952,7.223,7.223,0,0,0,1.891-3.394c.294-1.433-.352-2.029-1.721-1.482a13.043,13.043,0,0,0-2.6,1.417,27.54,27.54,0,0,0-6.992,7.508,1.594,1.594,0,0,0-.095.225Zm14.911-23.6a40.012,40.012,0,0,0-7.441,10.011,31.683,31.683,0,0,0,2.235-2.276.8.8,0,0,0,.148-.7c-.259-.555-.024-.822.405-1.132a12.446,12.446,0,0,0,4.337-5.076C345.788,105.21,345.889,104.927,345.986,104.651Z" transform="translate(-327.171 -103.207)"/><path class="b" d="M341.36,253.306a1.572,1.572,0,0,1,.53-.227q8.567-.018,17.134,0a.826.826,0,0,1,.144.028c-.024.423-.316.4-.612.4H341.441Z" transform="translate(-338.663 -224.586)"/></g></g></g></svg>