<svg xmlns="http://www.w3.org/2000/svg" width="56" height="56" viewBox="0 0 56 56"><defs><style>.a{fill:#3e4046;}.b{fill:#fff;}</style></defs><g transform="translate(-835 -5863)"><circle class="a" cx="28" cy="28" r="28" transform="translate(835 5863)"/><g transform="translate(-68.398 5774.448)"><path class="b" d="M940.691,146.643a1.273,1.273,0,1,0,1.273,1.273A1.273,1.273,0,0,0,940.691,146.643Z" transform="translate(-19.223 -31.364)"/><path class="b" d="M988.563,146.134a1.371,1.371,0,1,0,1.371,1.371A1.371,1.371,0,0,0,988.563,146.134Z" transform="translate(-54.519 -30.988)"/><path class="b" d="M945.427,104.192H918.346a4.946,4.946,0,0,0-4.946,4.946v12.938a4.946,4.946,0,0,0,4.946,4.946h9.565l3.253,4.531s.224.664.766.664h0c.542,0,.766-.664.766-.664l3.253-4.531h9.477a4.946,4.946,0,0,0,4.946-4.946V109.138A4.946,4.946,0,0,0,945.427,104.192Zm-20.411,12.641c-.015,2.938-3.053,3.022-3.053,3.022a2.538,2.538,0,0,1-1.838-.779v.53h-2.213v-9.124c-.009,0-.01,0,0-.005v.005c.137.022,2.213-.005,2.213-.005v3.49c.52-.887,2.025-.873,2.025-.873C925.425,113.4,925.016,116.833,925.016,116.833Zm3.895-3.459v6.247h-2.165v-6.185c0-.841-1.044-1.075-1.044-1.075v-2.181A2.994,2.994,0,0,1,928.911,113.374Zm5.133,6.485a3.353,3.353,0,1,1,3.63-3.342A3.495,3.495,0,0,1,934.044,119.859Zm11.863,0a3.089,3.089,0,0,1-3.194,3.174h-.982v-2.056h.592s1.355.125,1.34-1.963c0,0-.265.845-2.165.845a2.855,2.855,0,0,1-2.695-2.824v-1a3.079,3.079,0,0,1,3.022-2.945,2.2,2.2,0,0,1,1.885.842v-.67h2.2Z"/><path class="b" d="M1020.891,146.253a1.34,1.34,0,1,0,1.34,1.34A1.34,1.34,0,0,0,1020.891,146.253Z" transform="translate(-78.427 -31.076)"/></g></g></svg>