<svg xmlns="http://www.w3.org/2000/svg" xmlns:xlink="http://www.w3.org/1999/xlink" width="371" height="107" viewBox="0 0 371 107"><defs><style>.a{fill:#fff;}.b,.c{fill:#0096ff;}.b{font-size:16px;font-family:NotoSansCJKkr-Medium, Noto Sans CJK KR;font-weight:500;letter-spacing:-0.02em;}.d{filter:url(#a);}</style><filter id="a" x="0" y="0" width="371" height="107" filterUnits="userSpaceOnUse"><feOffset dx="12" dy="10" input="SourceAlpha"/><feGaussianBlur stdDeviation="6.5" result="b"/><feFlood flood-opacity="0.161"/><feComposite operator="in" in2="b"/><feComposite in="SourceGraphic"/></filter></defs><g transform="translate(-33.5 -695.5)"><g class="d" transform="matrix(1, 0, 0, 1, 33.5, 695.5)"><rect class="a" width="332" height="68" rx="7" transform="translate(7.5 9.5)"/></g><g transform="translate(-7.094 102.785)"><g transform="translate(153.212 624)"><text class="b" transform="translate(0 19)"><tspan x="0" y="0">데일리펀딩 앱 다운로드</tspan></text></g><path class="c" d="M580.938,134.95A10.565,10.565,0,1,0,591.5,145.516,10.566,10.566,0,0,0,580.938,134.95Zm4.383,12.941a4.974,4.974,0,0,1-.536.795q-.152.185-.322.354a4.968,4.968,0,0,1-3.524,1.46h-2.146a2.122,2.122,0,0,1-2.1-2.121v-3.716a2.414,2.414,0,0,0-.473-1.483c-.275-.41-1.163-1.742-1.163-1.742h0a.572.572,0,0,1,.465-.906h5.415a4.967,4.967,0,0,1,3.524,1.46q.17.17.322.354a4.988,4.988,0,0,1,.536,5.547Z" transform="translate(-447.278 491.02)"/></g></g></svg>