<svg xmlns="http://www.w3.org/2000/svg" width="56" height="56" viewBox="0 0 56 56"><defs><style>.a{fill:#3e4046;}.b{fill:#fff;}</style></defs><g transform="translate(-906 -5863)"><circle class="a" cx="28" cy="28" r="28" transform="translate(906 5863)"/><g transform="translate(1241.973 5449.747)"><path class="b" d="M-301.943,455.26H-313.1a8.823,8.823,0,0,1-8.814-8.814v-11.16a8.824,8.824,0,0,1,8.814-8.814h11.16a8.824,8.824,0,0,1,8.814,8.814v11.16A8.824,8.824,0,0,1-301.943,455.26Zm-11.16-26.632a6.666,6.666,0,0,0-6.658,6.658v11.16A6.666,6.666,0,0,0-313.1,453.1h11.16a6.666,6.666,0,0,0,6.658-6.658v-11.16a6.666,6.666,0,0,0-6.658-6.658Z"/><path class="b" d="M-295.605,460.065a7.29,7.29,0,0,1-7.282-7.282,7.29,7.29,0,0,1,7.282-7.282,7.29,7.29,0,0,1,7.282,7.282A7.29,7.29,0,0,1-295.605,460.065Zm0-12.357a5.08,5.08,0,0,0-5.075,5.074,5.081,5.081,0,0,0,5.075,5.075,5.081,5.081,0,0,0,5.075-5.075A5.081,5.081,0,0,0-295.605,447.709Z" transform="translate(-11.918 -11.917)"/><path class="b" d="M-263.079,440.2a1.9,1.9,0,0,1-1.9,1.9,1.9,1.9,0,0,1-1.9-1.9,1.9,1.9,0,0,1,1.9-1.9A1.9,1.9,0,0,1-263.079,440.2Z" transform="translate(-34.474 -7.413)"/></g></g></svg>