<svg xmlns="http://www.w3.org/2000/svg" width="56" height="56" viewBox="0 0 56 56"><defs><style>.a{fill:#3e4046;}.b{fill:#fff;}.c{fill:#575860;}</style></defs><g transform="translate(-1032 -5863)"><circle class="a" cx="28" cy="28" r="28" transform="translate(1032 5863)"/><g transform="translate(1391.192 5765.702)"><path class="b" d="M-315.59,121.763c-.013-.363-.031-.725-.059-1.087-.118-1.535-.289-3.293-1.3-4.521a4.958,4.958,0,0,0-3.489-1.433c-1.616-.183-3.24-.293-4.865-.355-3.291-.126-6.586-.053-9.878.02-1.691.038-3.383.075-5.07.21-2.071.165-4.2.468-5.165,2.538-.866,1.857-.758,4.215-.769,6.214-.01,1.792-.016,3.584.056,5.374.093,2.324.231,5.35,2.739,6.369a14.444,14.444,0,0,0,4.386.758c1.516.1,3.035.087,4.554.109,3.184.047,6.367-.062,9.549-.125a21.611,21.611,0,0,0,6.6-.791c1.826-.623,2.3-2.6,2.549-4.319a35.719,35.719,0,0,0,.18-5.154C-315.58,124.3-315.546,123.031-315.59,121.763Z" transform="translate(0)"/><path class="c" d="M-266.3,155.173l-7.93-4.657v9.317Z" transform="translate(-59.756 -30.073)"/></g></g></svg>