<svg xmlns="http://www.w3.org/2000/svg" width="27" height="28" viewBox="0 0 27 28"><defs><style>.a{fill:none;}.b{fill:#2699fb;}</style></defs><rect class="a" width="27" height="27" transform="translate(0 0)"/><path class="b" d="M13.457,0A13.457,13.457,0,1,0,26.914,13.457,13.5,13.5,0,0,0,13.457,0Zm-.135,22.338a1.884,1.884,0,1,1,1.884-1.884A1.84,1.84,0,0,1,13.322,22.338Zm3.633-10.5-1.48,1.615a1.644,1.644,0,0,0-.538,1.211,1.636,1.636,0,0,1-1.615,1.615,1.555,1.555,0,0,1-1.615-1.615,3,3,0,0,1,1.077-2.422L14,10.765a3.055,3.055,0,0,0,.942-1.884,1.412,1.412,0,0,0-1.48-1.48,1.583,1.583,0,0,0-1.615,1.211,1.757,1.757,0,0,1-1.615.942,1.412,1.412,0,0,1-1.48-1.48A1.463,1.463,0,0,1,8.882,7.4c.538-1.615,2.153-2.826,4.575-2.826,2.826,0,4.71,1.884,4.71,4.306A4.415,4.415,0,0,1,16.956,11.842Z" transform="translate(0 0)"/></svg>