<svg xmlns="http://www.w3.org/2000/svg" width="435.709" height="131.282" viewBox="0 0 435.709 131.282"><defs><style>.a{fill:#f8f8f8;}.b,.g,.h{fill:#191919;font-family:NotoSansCJKkr-Light, Noto Sans CJK KR;font-weight:300;}.b,.f,.h{font-size:22px;}.b{letter-spacing:-0.033em;}.c,.d,.f{fill:#198bfb;}.d,.f{font-family:NotoSansCJKkr-Bold, Noto Sans CJK KR;font-weight:700;}.e,.f,.h{letter-spacing:-0.02em;}.i{fill:none;stroke:#ababab;stroke-width:0.5px;}</style></defs><g transform="translate(-405 -3000.718)"><path class="a" d="M8.069,0H427.64c4.456,0,8.069,1.368,8.069,3.055V110.492c0,1.687-3.612,3.055-8.069,3.055H8.069c-4.456,0-8.069-1.368-8.069-3.055V3.055C0,1.368,3.612,0,8.069,0Z" transform="translate(405 3000.718)"/><path class="a" d="M23,0,34.385,14.548,46,29l-23-.1L0,29,11.615,14.548Z" transform="translate(554.1 3132) rotate(180)"/><g transform="translate(4)"><text class="b" transform="translate(471 3051)"><tspan x="-44.407" y="0">최대</tspan><tspan class="c" y="0"> </tspan><tspan class="d" y="0">17%</tspan><tspan class="e"><tspan x="-42.042" y="32">이자 절감</tspan></tspan></text><text class="f" transform="translate(768 3051)"><tspan x="-32.538" y="0">48시간</tspan><tspan class="g"><tspan x="-42.042" y="32">빠른 대출</tspan></tspan></text><text class="h" transform="translate(621 3051)"><tspan x="-39.82" y="0">중도상환</tspan><tspan x="-48.763" y="32">수수료 </tspan><tspan class="d" y="32">0%</tspan></text><path class="i" d="M-17469.447-7341v57.562" transform="translate(18012.947 10369.503)"/><path class="i" d="M-17469.447-7341v57.562" transform="translate(18166.947 10369.503)"/></g></g></svg>