<svg xmlns="http://www.w3.org/2000/svg" xmlns:xlink="http://www.w3.org/1999/xlink" width="219" height="219" viewBox="0 0 219 219"><defs><style>.a{fill:url(#a);}.b,.d{fill:none;}.b{stroke:#b8b8b8;stroke-width:0.5px;}.c{stroke:none;}.e{filter:url(#b);}</style><linearGradient id="a" x1="0.5" x2="0.526" y2="1.026" gradientUnits="objectBoundingBox"><stop offset="0" stop-color="#fff"/><stop offset="0.833" stop-color="#f4f4f4"/><stop offset="1" stop-color="#f2f2f2"/></linearGradient><filter id="b" x="0" y="0.193" width="219" height="218.807" filterUnits="userSpaceOnUse"><feOffset dy="3" input="SourceAlpha"/><feGaussianBlur stdDeviation="1" result="c"/><feFlood flood-color="#151c37" flood-opacity="0.188"/><feComposite operator="in" in2="c"/><feComposite in="SourceGraphic"/></filter></defs><g transform="translate(-1126 -2158.807)"><g class="e" transform="matrix(1, 0, 0, 1, 1126, 2158.81)"><path class="a" d="M106.5,0A106.4,106.4,0,1,1,0,106.4,106.452,106.452,0,0,1,106.5,0Z" transform="translate(3 0.19)"/></g><g transform="translate(1142.534 2158.807)"><path class="b" d="M-49.5-1744" transform="translate(142.438 1849.602)"/><path class="b" d="M-2117-2017v105.516" transform="translate(2209.938 2017)"/><path class="b" d="M0,0V107.2" transform="translate(92.837 105.141) rotate(60)"/><path class="b" d="M0,106.844V0" transform="translate(185.091 158.724) rotate(120)"/><g class="b" transform="translate(67.466 82.078)"><ellipse class="c" cx="24.5" cy="24" rx="24.5" ry="24"/><ellipse class="d" cx="24.5" cy="24" rx="24.25" ry="23.75"/></g><g class="b" transform="translate(42.466 57.066)"><circle class="c" cx="49.5" cy="49.5" r="49.5"/><circle class="d" cx="49.5" cy="49.5" r="49.25"/></g><g class="b" transform="translate(13.466 26.193)"><ellipse class="c" cx="80" cy="79.904" rx="80" ry="79.904"/><ellipse class="d" cx="80" cy="79.904" rx="79.75" ry="79.654"/></g></g></g></svg>