<svg xmlns="http://www.w3.org/2000/svg" xmlns:xlink="http://www.w3.org/1999/xlink" width="1920" height="886" viewBox="0 0 1920 886"><defs><style>.a{fill:#fff;stroke:#707070;}.b{fill:url(#a);}.c{clip-path:url(#b);}.d{opacity:0.41;fill:url(#c);}.e{opacity:0.21;fill:url(#d);}.f{opacity:0.95;fill:url(#e);}</style><linearGradient id="a" x1="0.785" y1="0.974" x2="0.679" y2="0.923" gradientUnits="objectBoundingBox"><stop offset="0" stop-color="#0096ff"/><stop offset="1" stop-color="#198bfb"/></linearGradient><clipPath id="b"><rect class="a" width="1913" height="886"/></clipPath><linearGradient id="c" x1="0.466" y1="0.273" x2="0.782" y2="0.664" gradientUnits="objectBoundingBox"><stop offset="0" stop-color="#0081ff" stop-opacity="0"/><stop offset="1" stop-color="#1f84f8"/></linearGradient><linearGradient id="d" x1="-0.311" y1="0.941" x2="0.577" y2="0.561" gradientUnits="objectBoundingBox"><stop offset="0" stop-color="#7bc9ff"/><stop offset="1" stop-color="#0196ff"/></linearGradient><linearGradient id="e" x1="0.353" y1="-0.333" x2="0.529" y2="0.616" gradientUnits="objectBoundingBox"><stop offset="0" stop-color="#fff" stop-opacity="0.2"/><stop offset="1" stop-color="#0096ff" stop-opacity="0"/></linearGradient></defs><g transform="translate(-7 13)"><rect class="b" width="1920" height="886" transform="translate(7 -13)"/><g class="c" transform="translate(14 -13)"><g transform="translate(-70.341 -461.924)"><ellipse class="d" cx="667" cy="585" rx="667" ry="585" transform="translate(668.341 653.924)"/><ellipse class="e" cx="381" cy="385.5" rx="381" ry="385.5" transform="translate(400.341 -0.076)"/><path class="f" d="M512.02,0C794.8,0,1024.04,222.714,1024.04,497.446S794.8,994.892,512.02,994.892,0,772.178,0,497.446,229.239,0,512.02,0Z" transform="translate(0 633.565)"/></g></g></g></svg>