<svg xmlns="http://www.w3.org/2000/svg" xmlns:xlink="http://www.w3.org/1999/xlink" width="469" height="202" viewBox="0 0 469 202"><defs><style>.a{fill:url(#a);}.b{filter:url(#b);}</style><linearGradient id="a" x1="0.5" x2="0.5" y2="1" gradientUnits="objectBoundingBox"><stop offset="0" stop-color="#2d9aff"/><stop offset="1" stop-color="#0072e4"/></linearGradient><filter id="b" x="0" y="0" width="469" height="202" filterUnits="userSpaceOnUse"><feOffset dx="1" dy="5" input="SourceAlpha"/><feGaussianBlur stdDeviation="2.5" result="c"/><feFlood flood-opacity="0.31"/><feComposite operator="in" in2="c"/><feComposite in="SourceGraphic"/></filter></defs><g class="b" transform="matrix(1, 0, 0, 1, 0, 0)"><path class="a" d="M172.87,608.1l402.025-.871c14.292,0,25.987,12.441,25.987,23.022V745.694A26.048,26.048,0,0,1,574.9,771.649l-31.081.871c-11.55,10.888-9.343,21.707-9.343,21.707L499.1,772.52H172.87a26.047,26.047,0,0,1-25.987-25.955V634.053A26.047,26.047,0,0,1,172.87,608.1Z" transform="translate(-140.38 -604.73)"/></g></svg>